<svg width="12" height="18" viewBox="0 0 12 18" fill="none" xmlns="http://www.w3.org/2000/svg">
  <path d="M9.9604 0.96512C10.1979 0.959897 10.4311 1.02874 10.6276 1.16219C10.8241 1.29564 10.9742 1.48709 11.0569 1.70977C11.1397 1.93244 11.151 2.17533 11.0893 2.40472C11.0276 2.63411 10.8959 2.83849 10.7126 2.9896L3.71933 8.98067L10.7126 14.9696C10.8394 15.0628 10.9456 15.1811 11.0245 15.3172C11.1034 15.4534 11.1534 15.6043 11.1713 15.7607C11.1892 15.917 11.1746 16.0753 11.1285 16.2257C11.0823 16.3762 11.0056 16.5155 10.9032 16.6349C10.8007 16.7543 10.6747 16.8512 10.533 16.9196C10.3913 16.9881 10.237 17.0265 10.0798 17.0326C9.92258 17.0387 9.76579 17.0123 9.61926 16.955C9.47273 16.8976 9.33962 16.8106 9.22826 16.6995L1.22156 9.84896C1.09582 9.74166 0.994858 9.60848 0.925625 9.45838C0.856392 9.30828 0.820539 9.14491 0.820539 8.97961C0.820539 8.81432 0.856392 8.65094 0.925625 8.50084C0.994858 8.35075 1.09582 8.21743 1.22156 8.11013L9.22826 1.25301C9.43052 1.07336 9.68995 0.971222 9.9604 0.964857V0.96512Z" fill="#191C21" />
</svg>
