<svg width="18" height="24" viewBox="0 0 18 18" fill="none" xmlns="http://www.w3.org/2000/svg">
<g clip-path="url(#clip0_5191_54270)">
<path d="M0.576863 18C0.427329 18 0.28073 17.9413 0.172422 17.8322C0.0304346 17.6902 -0.0268635 17.4841 0.0220495 17.2895L1.0966 12.9765C1.12175 12.8758 1.17374 12.7834 1.24697 12.7102L13.3434 0.613684C14.1615 -0.204561 15.4934 -0.204561 16.3116 0.613684L17.3908 1.69284C18.209 2.51109 18.209 3.84292 17.3908 4.66103L5.29445 16.7575C5.22108 16.8307 5.12871 16.8834 5.02809 16.9079L0.715077 17.9824C0.669239 17.9947 0.6234 18 0.576863 18ZM2.16821 13.407L1.36227 16.6415L4.59681 15.8356L16.5818 3.85131C16.9535 3.47957 16.9535 2.8736 16.5818 2.50187L15.5026 1.4227C15.1302 1.05027 14.5241 1.05097 14.1532 1.4227L2.16821 13.407ZM4.88987 16.3531H4.89756H4.88987Z" fill="#D1D2D3"/>
<path d="M15.1242 6.69162C14.9776 6.69162 14.831 6.63586 14.7196 6.52378L11.4813 3.28616C11.2575 3.06241 11.2575 2.6999 11.4813 2.4763C11.7049 2.25269 12.0674 2.25269 12.291 2.4763L15.5295 5.71476C15.7531 5.93836 15.7531 6.30087 15.5295 6.52448C15.4164 6.63586 15.2699 6.69162 15.1242 6.69162Z" fill="#D1D2D3"/>
<path d="M4.8897 16.9268C4.74311 16.9268 4.59665 16.8711 4.48526 16.7589L1.2468 13.5205C1.0232 13.2968 1.0232 12.9343 1.2468 12.7107C1.47041 12.4871 1.83292 12.4871 2.05666 12.7107L5.29498 15.9491C5.51859 16.1727 5.51859 16.5352 5.29498 16.7589C5.18276 16.8711 5.0363 16.9268 4.8897 16.9268Z" fill="#D1D2D3"/>
</g>
<defs>
<clipPath id="clip0_5191_54270">
<rect width="18" height="18" fill="#D1D2D3"/>
</clipPath>
</defs>
</svg>
